<!--?xml version="1.0" standalone="no"?-->
              <svg id="sw-js-blob-svg" viewBox="0 0 100 100" xmlns="http://www.w3.org/2000/svg" version="1.1">
                    <defs> 
                        <linearGradient id="sw-gradient" x1="0" x2="1" y1="1" y2="0">
                            <stop id="stop1" stop-color="rgba(60.046, 232.161, 241.375, 1)" offset="0%"></stop>
                            <stop id="stop2" stop-color="rgba(31, 90.774, 251, 1)" offset="100%"></stop>
                        </linearGradient>
                    </defs>
                <path fill="url(#sw-gradient)" d="M18.1,-32.2C22.8,-28.7,25.4,-22.5,26.3,-16.6C27.2,-10.8,26.3,-5.4,26.8,0.3C27.3,6,29.3,12,27.2,15.8C25.2,19.6,19.2,21.2,14,24.3C8.8,27.3,4.4,31.8,-0.6,32.8C-5.6,33.8,-11.1,31.4,-17.9,29.2C-24.6,27.1,-32.5,25.2,-35.8,20.4C-39.1,15.5,-37.8,7.8,-36.5,0.8C-35.1,-6.2,-33.7,-12.4,-30.2,-16.9C-26.7,-21.4,-21.1,-24.1,-15.7,-27.3C-10.4,-30.4,-5.2,-33.9,0.8,-35.2C6.7,-36.5,13.5,-35.8,18.1,-32.2Z" width="100%" height="100%" transform="translate(50 50)" stroke-width="0" style="transition: all 0.3s ease 0s;" stroke="url(#sw-gradient)"></path>
              </svg>