<svg width="15" height="12" viewBox="0 0 15 12" fill="none" xmlns="http://www.w3.org/2000/svg">
<path id="Vector" d="M12.4366 0H2.5C1.8372 0.000793929 1.20178 0.264441 0.73311 0.73311C0.264441 1.20178 0.000793929 1.8372 0 2.5V9.0078C0.000793929 9.6706 0.264441 10.306 0.73311 10.7747C1.20178 11.2434 1.8372 11.507 2.5 11.5078H12.4366C13.0994 11.507 13.7348 11.2434 14.2035 10.7747C14.6722 10.306 14.9358 9.6706 14.9366 9.0078V2.5C14.9358 1.8372 14.6722 1.20178 14.2035 0.73311C13.7348 0.264441 13.0994 0.000793929 12.4366 0ZM2.5 1H12.4366C12.8343 1.00042 13.2156 1.1586 13.4968 1.43981C13.778 1.72102 13.9362 2.10231 13.9366 2.5V3.1558H1V2.5C1.00042 2.10231 1.15859 1.72102 1.43981 1.43981C1.72102 1.1586 2.10231 1.00042 2.5 1ZM12.4366 10.5078H2.5C2.10231 10.5074 1.72102 10.3492 1.43981 10.068C1.15859 9.78678 1.00042 9.40549 1 9.0078V4.1558H13.9366V9.0078C13.9362 9.40549 13.778 9.78678 13.4968 10.068C13.2156 10.3492 12.8343 10.5074 12.4366 10.5078ZM12.5699 8.1694C12.5699 8.30201 12.5172 8.42918 12.4235 8.52295C12.3297 8.61672 12.2025 8.6694 12.0699 8.6694H10.8711C10.7385 8.6694 10.6113 8.61672 10.5175 8.52295C10.4238 8.42918 10.3711 8.30201 10.3711 8.1694C10.3711 8.03679 10.4238 7.90962 10.5175 7.81585C10.6113 7.72208 10.7385 7.6694 10.8711 7.6694H12.0699C12.2025 7.6694 12.3297 7.72208 12.4235 7.81585C12.5172 7.90962 12.5699 8.03679 12.5699 8.1694Z" fill="black"/>
</svg>
